<svg width="20" height="20" viewBox="0 0 20 20" fill="none" xmlns="http://www.w3.org/2000/svg">
<path d="M18.3337 8.33333H1.66699M9.16699 15.8333L15.667 15.8333C16.6004 15.8333 17.0671 15.8333 17.4236 15.6517C17.7372 15.4919 17.9922 15.2369 18.152 14.9233C18.3337 14.5668 18.3337 14.1001 18.3337 13.1667V6.83333C18.3337 5.89991 18.3337 5.4332 18.152 5.07668C17.9922 4.76308 17.7372 4.50811 17.4236 4.34832C17.0671 4.16667 16.6004 4.16667 15.667 4.16667H14.167M9.16699 15.8333L10.8337 17.5M9.16699 15.8333L10.8337 14.1667M5.83366 15.8333H4.33366C3.40024 15.8333 2.93353 15.8333 2.57701 15.6517C2.2634 15.4919 2.00844 15.2369 1.84865 14.9233C1.66699 14.5668 1.66699 14.1001 1.66699 13.1667V6.83333C1.66699 5.89991 1.66699 5.4332 1.84865 5.07668C2.00844 4.76308 2.2634 4.50811 2.57701 4.34832C2.93353 4.16667 3.40024 4.16667 4.33366 4.16667H10.8337M10.8337 4.16667L9.16699 5.83333M10.8337 4.16667L9.16699 2.5" stroke="#020915" stroke-linecap="round" stroke-linejoin="round"/>
</svg>
