<svg width="24" height="24" viewBox="0 0 24 24" fill="none" xmlns="http://www.w3.org/2000/svg">
<path d="M13.5091 6.42222C11.8074 7.14143 8.40641 8.63001 3.30615 10.888C2.47795 11.2226 2.0441 11.55 2.0046 11.8702C1.93786 12.4112 2.60461 12.6242 3.51256 12.9143C3.63607 12.9538 3.76403 12.9947 3.89522 13.038C4.78851 13.3331 5.99014 13.6782 6.61481 13.692C7.18145 13.7044 7.81389 13.467 8.51212 12.9798C13.2775 9.71119 15.7373 8.05907 15.8918 8.02345C16.0007 7.99833 16.1517 7.96673 16.254 8.05912C16.3563 8.15151 16.3463 8.32649 16.3354 8.37343C16.2694 8.65956 13.6521 11.1321 12.2977 12.4116C11.8754 12.8105 11.5759 13.0934 11.5147 13.158C11.3775 13.3028 11.2377 13.4397 11.1034 13.5713C10.2735 14.3842 9.65118 14.9939 11.1378 15.9894C11.8523 16.4678 12.424 16.8634 12.9943 17.258C13.6171 17.689 14.2385 18.119 15.0422 18.6543C15.247 18.7907 15.4426 18.9325 15.6331 19.0704C16.358 19.5955 17.0092 20.0673 17.8138 19.9921C18.2813 19.9484 18.7642 19.5017 19.0094 18.1694C19.589 15.021 20.7283 8.19928 20.9916 5.38822C21.0146 5.14193 20.9856 4.82673 20.9623 4.68837C20.939 4.55001 20.8903 4.35287 20.7133 4.20693C20.5037 4.0341 20.1801 3.99765 20.0353 4.00011C19.3773 4.01202 18.3677 4.36873 13.5091 6.42222Z" stroke="#A1C4FF"/>
</svg>
