<svg width="32" height="32" viewBox="0 0 32 32" fill="none" xmlns="http://www.w3.org/2000/svg">
<path d="M7 14.5651C7 13.9907 7 13.7035 7.07403 13.4391C7.1396 13.2048 7.24737 12.9844 7.39203 12.7889C7.55534 12.5681 7.78202 12.3917 8.23539 12.0391L15.0177 6.764C15.369 6.49075 15.5447 6.35412 15.7387 6.3016C15.9098 6.25526 16.0902 6.25526 16.2613 6.3016C16.4553 6.35412 16.631 6.49075 16.9823 6.764L23.7646 12.0391C24.218 12.3917 24.4447 12.5681 24.608 12.7889C24.7526 12.9844 24.8604 13.2048 24.926 13.4391C25 13.7035 25 13.9907 25 14.5651V21.8C25 22.9201 25 23.4801 24.782 23.908C24.5903 24.2843 24.2843 24.5903 23.908 24.782C23.4802 25 22.9201 25 21.8 25H10.2C9.07989 25 8.51984 25 8.09202 24.782C7.71569 24.5903 7.40973 24.2843 7.21799 23.908C7 23.4801 7 22.9201 7 21.8V14.5651Z" stroke="#FEFEFC" strokeLinecap="round" strokeLinejoin="round"/>
</svg>
