<svg width="32" height="32" viewBox="0 0 32 32" fill="none" xmlns="http://www.w3.org/2000/svg">
<path d="M10.0001 15H14.0001M12.0001 13V17M19.0001 16H19.0101M22.0001 14H22.0101M14.4491 9H17.5512C20.1761 9 21.4885 9 22.5187 9.49743C23.4257 9.9354 24.1793 10.6371 24.6808 11.5106C25.2503 12.5027 25.3438 13.8118 25.5309 16.43L25.7769 19.8745C25.8975 21.5634 24.5599 23 22.8667 23C22.0008 23 21.1796 22.6154 20.6253 21.9502L20.2501 21.5C19.907 21.0882 19.7354 20.8823 19.54 20.7159C19.1305 20.3672 18.6346 20.1349 18.1045 20.0436C17.8516 20 17.5836 20 17.0476 20H14.9527C14.4167 20 14.1487 20 13.8958 20.0436C13.3656 20.1349 12.8698 20.3672 12.4602 20.7159C12.2649 20.8823 12.0933 21.0882 11.7501 21.5L11.375 21.9502C10.8206 22.6154 9.99949 23 9.13359 23C7.44037 23 6.10275 21.5634 6.22339 19.8745L6.46942 16.43C6.65644 13.8118 6.74994 12.5027 7.31951 11.5106C7.82098 10.6371 8.57458 9.9354 9.48159 9.49743C10.5118 9 11.8242 9 14.4491 9Z" stroke="#FEFEFC" strokeLinecap="round" strokeLinejoin="round"/>
</svg>
