<svg width="32" height="32" viewBox="0 0 32 32" fill="none" xmlns="http://www.w3.org/2000/svg">
<path d="M19.9996 12C19.9996 13.0609 19.5782 14.0783 18.828 14.8284C18.0779 15.5786 17.0605 16 15.9996 16C14.9387 16 13.9213 15.5786 13.1712 14.8284C12.421 14.0783 11.9996 13.0609 11.9996 12M7.63281 11.4014L6.93281 19.8014C6.78243 21.6059 6.70724 22.5082 7.01227 23.2042C7.28027 23.8157 7.74462 24.3204 8.33177 24.6382C9.00006 25 9.90545 25 11.7162 25H20.283C22.0937 25 22.9991 25 23.6674 24.6382C24.2546 24.3204 24.7189 23.8157 24.9869 23.2042C25.2919 22.5082 25.2167 21.6059 25.0664 19.8014L24.3664 11.4014C24.237 9.84875 24.1723 9.07243 23.8285 8.48486C23.5257 7.96744 23.0748 7.5526 22.5341 7.29385C21.92 7 21.141 7 19.583 7L12.4162 7C10.8582 7 10.0792 7 9.4651 7.29384C8.92433 7.5526 8.47349 7.96744 8.17071 8.48486C7.82689 9.07243 7.76219 9.84875 7.63281 11.4014Z" stroke="#FEFEFC" stroke-linecap="round" stroke-linejoin="round"/>
</svg>
